<mxfile host="app.diagrams.net" agent="Mozilla/5.0 (Windows NT 10.0; Win64; x64) AppleWebKit/537.36 (KHTML, like Gecko) Chrome/134.0.0.0 Safari/537.36" version="26.1.1">
  <diagram name="Page-1" id="mAaeDnLQPSmd54liW6lI">
    <mxGraphModel dx="9986" dy="4372" grid="1" gridSize="10" guides="1" tooltips="1" connect="1" arrows="1" fold="1" page="1" pageScale="1" pageWidth="850" pageHeight="1100" math="0" shadow="0">
      <root>
        <mxCell id="0" />
        <mxCell id="1" style="" parent="0" />
        <mxCell id="ew9iyMlm-J7ILumPAnAc-18" value="Private subnet" style="points=[[0,0],[0.25,0],[0.5,0],[0.75,0],[1,0],[1,0.25],[1,0.5],[1,0.75],[1,1],[0.75,1],[0.5,1],[0.25,1],[0,1],[0,0.75],[0,0.5],[0,0.25]];outlineConnect=0;gradientColor=none;html=1;whiteSpace=wrap;fontSize=12;fontStyle=0;container=1;pointerEvents=0;collapsible=0;recursiveResize=0;shape=mxgraph.aws4.group;grIcon=mxgraph.aws4.group_security_group;grStroke=0;strokeColor=#00A4A6;fillColor=#E6F6F7;verticalAlign=top;align=left;spacingLeft=30;fontColor=#147EBA;dashed=0;" parent="1" vertex="1">
          <mxGeometry x="371" y="605" width="590" height="420" as="geometry" />
        </mxCell>
        <mxCell id="ew9iyMlm-J7ILumPAnAc-17" value="Private subnet" style="points=[[0,0],[0.25,0],[0.5,0],[0.75,0],[1,0],[1,0.25],[1,0.5],[1,0.75],[1,1],[0.75,1],[0.5,1],[0.25,1],[0,1],[0,0.75],[0,0.5],[0,0.25]];outlineConnect=0;gradientColor=none;html=1;whiteSpace=wrap;fontSize=12;fontStyle=0;container=1;pointerEvents=0;collapsible=0;recursiveResize=0;shape=mxgraph.aws4.group;grIcon=mxgraph.aws4.group_security_group;grStroke=0;strokeColor=#00A4A6;fillColor=#E6F6F7;verticalAlign=top;align=left;spacingLeft=30;fontColor=#147EBA;dashed=0;" parent="1" vertex="1">
          <mxGeometry x="-360" y="610" width="580" height="420" as="geometry" />
        </mxCell>
        <mxCell id="ew9iyMlm-J7ILumPAnAc-15" value="Public subnet" style="points=[[0,0],[0.25,0],[0.5,0],[0.75,0],[1,0],[1,0.25],[1,0.5],[1,0.75],[1,1],[0.75,1],[0.5,1],[0.25,1],[0,1],[0,0.75],[0,0.5],[0,0.25]];outlineConnect=0;gradientColor=none;html=1;whiteSpace=wrap;fontSize=12;fontStyle=0;container=1;pointerEvents=0;collapsible=0;recursiveResize=0;shape=mxgraph.aws4.group;grIcon=mxgraph.aws4.group_security_group;grStroke=0;strokeColor=#7AA116;fillColor=#F2F6E8;verticalAlign=top;align=left;spacingLeft=30;fontColor=#248814;dashed=0;" parent="1" vertex="1">
          <mxGeometry x="-358" y="259" width="580" height="315" as="geometry" />
        </mxCell>
        <mxCell id="ew9iyMlm-J7ILumPAnAc-19" value="" style="sketch=0;outlineConnect=0;fontColor=#232F3E;gradientColor=none;fillColor=#8C4FFF;strokeColor=none;dashed=0;verticalLabelPosition=bottom;verticalAlign=top;align=center;html=1;fontSize=12;fontStyle=0;aspect=fixed;pointerEvents=1;shape=mxgraph.aws4.nat_gateway;" parent="ew9iyMlm-J7ILumPAnAc-15" vertex="1">
          <mxGeometry x="239" y="118.5" width="78" height="78" as="geometry" />
        </mxCell>
        <mxCell id="ew9iyMlm-J7ILumPAnAc-141" value="" style="edgeStyle=elbowEdgeStyle;elbow=horizontal;endArrow=classic;html=1;curved=0;rounded=0;endSize=8;startSize=8;exitX=0;exitY=0.5;exitDx=0;exitDy=0;strokeColor=#1A1A1A;" parent="ew9iyMlm-J7ILumPAnAc-15" source="ew9iyMlm-J7ILumPAnAc-87" edge="1">
          <mxGeometry width="50" height="50" relative="1" as="geometry">
            <mxPoint x="367" y="201" as="sourcePoint" />
            <mxPoint x="317" y="161" as="targetPoint" />
          </mxGeometry>
        </mxCell>
        <mxCell id="ew9iyMlm-J7ILumPAnAc-16" value="Public subnet" style="points=[[0,0],[0.25,0],[0.5,0],[0.75,0],[1,0],[1,0.25],[1,0.5],[1,0.75],[1,1],[0.75,1],[0.5,1],[0.25,1],[0,1],[0,0.75],[0,0.5],[0,0.25]];outlineConnect=0;gradientColor=none;html=1;whiteSpace=wrap;fontSize=12;fontStyle=0;container=1;pointerEvents=0;collapsible=0;recursiveResize=0;shape=mxgraph.aws4.group;grIcon=mxgraph.aws4.group_security_group;grStroke=0;strokeColor=#7AA116;fillColor=#F2F6E8;verticalAlign=top;align=left;spacingLeft=30;fontColor=#248814;dashed=0;" parent="1" vertex="1">
          <mxGeometry x="373" y="260" width="580" height="315" as="geometry" />
        </mxCell>
        <mxCell id="ew9iyMlm-J7ILumPAnAc-1" value="AWS Cloud" style="points=[[0,0],[0.25,0],[0.5,0],[0.75,0],[1,0],[1,0.25],[1,0.5],[1,0.75],[1,1],[0.75,1],[0.5,1],[0.25,1],[0,1],[0,0.75],[0,0.5],[0,0.25]];outlineConnect=0;gradientColor=none;html=1;whiteSpace=wrap;fontSize=12;fontStyle=0;container=1;pointerEvents=0;collapsible=0;recursiveResize=0;shape=mxgraph.aws4.group;grIcon=mxgraph.aws4.group_aws_cloud_alt;strokeColor=#232F3E;fillColor=none;verticalAlign=top;align=left;spacingLeft=30;fontColor=#232F3E;dashed=0;movable=1;resizable=1;rotatable=1;deletable=1;editable=1;locked=0;connectable=1;strokeWidth=2;" parent="1" vertex="1">
          <mxGeometry x="-480" width="1560" height="1240" as="geometry" />
        </mxCell>
        <mxCell id="ew9iyMlm-J7ILumPAnAc-5" value="Availability zone" style="sketch=0;outlineConnect=0;gradientColor=none;html=1;whiteSpace=wrap;fontSize=12;fontStyle=0;shape=mxgraph.aws4.group;grIcon=mxgraph.aws4.group_availability_zone;strokeColor=#000000;fillColor=none;verticalAlign=top;align=left;spacingLeft=30;fontColor=#545B64;dashed=1;movable=1;resizable=1;rotatable=1;deletable=1;editable=1;locked=0;connectable=1;strokeWidth=2;" parent="ew9iyMlm-J7ILumPAnAc-1" vertex="1">
          <mxGeometry x="80" y="60" width="680" height="1140" as="geometry" />
        </mxCell>
        <mxCell id="ew9iyMlm-J7ILumPAnAc-2" value="&lt;blockquote style=&quot;margin: 0 0 0 40px; border: none; padding: 0px;&quot;&gt;&lt;blockquote style=&quot;margin: 0 0 0 40px; border: none; padding: 0px;&quot;&gt;&lt;blockquote style=&quot;margin: 0 0 0 40px; border: none; padding: 0px;&quot;&gt;&lt;blockquote style=&quot;margin: 0 0 0 40px; border: none; padding: 0px;&quot;&gt;&lt;blockquote style=&quot;margin: 0 0 0 40px; border: none; padding: 0px;&quot;&gt;&lt;blockquote style=&quot;margin: 0 0 0 40px; border: none; padding: 0px;&quot;&gt;Region&lt;/blockquote&gt;&lt;/blockquote&gt;&lt;/blockquote&gt;&lt;/blockquote&gt;&lt;/blockquote&gt;&lt;/blockquote&gt;" style="sketch=0;outlineConnect=0;gradientColor=none;html=1;whiteSpace=wrap;fontSize=12;fontStyle=0;shape=mxgraph.aws4.group;grIcon=mxgraph.aws4.group_region;strokeColor=#000000;fillColor=none;verticalAlign=top;align=left;spacingLeft=30;fontColor=#879196;dashed=1;movable=0;resizable=0;rotatable=0;deletable=0;editable=0;locked=1;connectable=0;strokeWidth=2;" parent="ew9iyMlm-J7ILumPAnAc-1" vertex="1">
          <mxGeometry x="40" y="33" width="1470" height="1180" as="geometry" />
        </mxCell>
        <mxCell id="ew9iyMlm-J7ILumPAnAc-13" value="Availability zone" style="sketch=0;outlineConnect=0;gradientColor=none;html=1;whiteSpace=wrap;fontSize=12;fontStyle=0;shape=mxgraph.aws4.group;grIcon=mxgraph.aws4.group_availability_zone;strokeColor=#000000;fillColor=none;verticalAlign=top;align=left;spacingLeft=30;fontColor=#545B64;dashed=1;movable=0;resizable=0;rotatable=0;deletable=0;editable=0;locked=1;connectable=0;" parent="ew9iyMlm-J7ILumPAnAc-1" vertex="1">
          <mxGeometry x="790" y="60" width="680" height="1140" as="geometry" />
        </mxCell>
        <mxCell id="ew9iyMlm-J7ILumPAnAc-8" value="VPC" style="points=[[0,0],[0.25,0],[0.5,0],[0.75,0],[1,0],[1,0.25],[1,0.5],[1,0.75],[1,1],[0.75,1],[0.5,1],[0.25,1],[0,1],[0,0.75],[0,0.5],[0,0.25]];outlineConnect=0;gradientColor=none;html=1;whiteSpace=wrap;fontSize=12;fontStyle=0;container=1;pointerEvents=0;collapsible=0;recursiveResize=0;shape=mxgraph.aws4.group;grIcon=mxgraph.aws4.group_vpc2;strokeColor=#8C4FFF;fillColor=none;verticalAlign=top;align=left;spacingLeft=30;fontColor=#AAB7B8;dashed=0;movable=0;resizable=0;rotatable=0;deletable=0;editable=0;locked=1;connectable=0;strokeWidth=2;" parent="ew9iyMlm-J7ILumPAnAc-1" vertex="1">
          <mxGeometry x="60" y="211" width="1430" height="843" as="geometry" />
        </mxCell>
        <mxCell id="ew9iyMlm-J7ILumPAnAc-62" value="a" style="group;strokeWidth=2;" parent="ew9iyMlm-J7ILumPAnAc-1" vertex="1" connectable="0">
          <mxGeometry x="150" y="670" width="1280" height="330" as="geometry" />
        </mxCell>
        <mxCell id="ew9iyMlm-J7ILumPAnAc-60" value="" style="fillColor=none;strokeColor=#FF8000;verticalAlign=top;fontStyle=0;fontColor=#232F3D;whiteSpace=wrap;html=1;" parent="ew9iyMlm-J7ILumPAnAc-62" vertex="1">
          <mxGeometry width="1280" height="330" as="geometry" />
        </mxCell>
        <mxCell id="ew9iyMlm-J7ILumPAnAc-61" value="" style="sketch=0;points=[[0,0,0],[0.25,0,0],[0.5,0,0],[0.75,0,0],[1,0,0],[0,1,0],[0.25,1,0],[0.5,1,0],[0.75,1,0],[1,1,0],[0,0.25,0],[0,0.5,0],[0,0.75,0],[1,0.25,0],[1,0.5,0],[1,0.75,0]];outlineConnect=0;fontColor=#232F3E;fillColor=#ED7100;strokeColor=#ffffff;dashed=0;verticalLabelPosition=bottom;verticalAlign=top;align=center;html=1;fontSize=12;fontStyle=0;aspect=fixed;shape=mxgraph.aws4.resourceIcon;resIcon=mxgraph.aws4.ecs;" parent="ew9iyMlm-J7ILumPAnAc-62" vertex="1">
          <mxGeometry width="70.45161290322581" height="70.45161290322581" as="geometry" />
        </mxCell>
        <mxCell id="ew9iyMlm-J7ILumPAnAc-76" value="" style="group" parent="ew9iyMlm-J7ILumPAnAc-62" vertex="1" connectable="0">
          <mxGeometry x="90" y="120" width="320" height="130" as="geometry" />
        </mxCell>
        <mxCell id="ew9iyMlm-J7ILumPAnAc-75" value="" style="sketch=0;points=[[0,0,0],[0.25,0,0],[0.5,0,0],[0.75,0,0],[1,0,0],[0,1,0],[0.25,1,0],[0.5,1,0],[0.75,1,0],[1,1,0],[0,0.25,0],[0,0.5,0],[0,0.75,0],[1,0.25,0],[1,0.5,0],[1,0.75,0]];outlineConnect=0;fontColor=#232F3E;fillColor=#ED7100;strokeColor=#ffffff;dashed=0;verticalLabelPosition=bottom;verticalAlign=top;align=center;html=1;fontSize=12;fontStyle=0;aspect=fixed;shape=mxgraph.aws4.resourceIcon;resIcon=mxgraph.aws4.fargate;" parent="ew9iyMlm-J7ILumPAnAc-76" vertex="1">
          <mxGeometry width="60" height="60" as="geometry" />
        </mxCell>
        <mxCell id="ew9iyMlm-J7ILumPAnAc-81" value="" style="group" parent="ew9iyMlm-J7ILumPAnAc-76" vertex="1" connectable="0">
          <mxGeometry width="320" height="130" as="geometry" />
        </mxCell>
        <mxCell id="ew9iyMlm-J7ILumPAnAc-82" value="" style="group" parent="ew9iyMlm-J7ILumPAnAc-81" vertex="1" connectable="0">
          <mxGeometry width="320" height="130" as="geometry" />
        </mxCell>
        <mxCell id="ew9iyMlm-J7ILumPAnAc-74" value="" style="fillColor=none;strokeColor=#FF8000;dashed=1;verticalAlign=top;fontStyle=0;fontColor=#5A6C86;whiteSpace=wrap;html=1;" parent="ew9iyMlm-J7ILumPAnAc-82" vertex="1">
          <mxGeometry width="320" height="130" as="geometry" />
        </mxCell>
        <mxCell id="ew9iyMlm-J7ILumPAnAc-80" value="" style="sketch=0;outlineConnect=0;fontColor=#232F3E;gradientColor=none;fillColor=#ED7100;strokeColor=none;dashed=0;verticalLabelPosition=bottom;verticalAlign=top;align=center;html=1;fontSize=12;fontStyle=0;aspect=fixed;pointerEvents=1;shape=mxgraph.aws4.container_1;" parent="ew9iyMlm-J7ILumPAnAc-82" vertex="1">
          <mxGeometry x="128.39" y="44.58" width="63.23" height="40.84" as="geometry" />
        </mxCell>
        <mxCell id="ew9iyMlm-J7ILumPAnAc-155" value="&lt;h1&gt;&lt;font style=&quot;color: light-dark(rgb(237, 113, 0), rgb(237, 237, 237)); font-size: 20px;&quot;&gt;Fargate&lt;/font&gt;&lt;/h1&gt;" style="text;strokeColor=none;align=center;fillColor=none;html=1;verticalAlign=middle;whiteSpace=wrap;rounded=0;fontStyle=1;fontFamily=Helvetica;" parent="ew9iyMlm-J7ILumPAnAc-82" vertex="1">
          <mxGeometry x="60" width="90" height="30" as="geometry" />
        </mxCell>
        <mxCell id="ew9iyMlm-J7ILumPAnAc-162" value="&lt;h1&gt;&lt;font style=&quot;font-size: 18px; color: rgb(26, 26, 26);&quot;&gt;Container&lt;/font&gt;&lt;/h1&gt;" style="text;strokeColor=none;align=center;fillColor=none;html=1;verticalAlign=middle;whiteSpace=wrap;rounded=0;fontStyle=1;fontFamily=Helvetica;" parent="ew9iyMlm-J7ILumPAnAc-82" vertex="1">
          <mxGeometry x="114.99999999999999" y="85.41999999999996" width="90" height="30" as="geometry" />
        </mxCell>
        <mxCell id="ew9iyMlm-J7ILumPAnAc-83" value="" style="group" parent="ew9iyMlm-J7ILumPAnAc-62" vertex="1" connectable="0">
          <mxGeometry x="800" y="120" width="320" height="130" as="geometry" />
        </mxCell>
        <mxCell id="ew9iyMlm-J7ILumPAnAc-84" value="" style="sketch=0;points=[[0,0,0],[0.25,0,0],[0.5,0,0],[0.75,0,0],[1,0,0],[0,1,0],[0.25,1,0],[0.5,1,0],[0.75,1,0],[1,1,0],[0,0.25,0],[0,0.5,0],[0,0.75,0],[1,0.25,0],[1,0.5,0],[1,0.75,0]];outlineConnect=0;fontColor=#232F3E;fillColor=#ED7100;strokeColor=#ffffff;dashed=0;verticalLabelPosition=bottom;verticalAlign=top;align=center;html=1;fontSize=12;fontStyle=0;aspect=fixed;shape=mxgraph.aws4.resourceIcon;resIcon=mxgraph.aws4.fargate;" parent="ew9iyMlm-J7ILumPAnAc-83" vertex="1">
          <mxGeometry width="60" height="60" as="geometry" />
        </mxCell>
        <mxCell id="ew9iyMlm-J7ILumPAnAc-85" value="" style="group" parent="ew9iyMlm-J7ILumPAnAc-83" vertex="1" connectable="0">
          <mxGeometry width="320" height="130" as="geometry" />
        </mxCell>
        <mxCell id="ew9iyMlm-J7ILumPAnAc-86" value="" style="group" parent="ew9iyMlm-J7ILumPAnAc-85" vertex="1" connectable="0">
          <mxGeometry width="320" height="130" as="geometry" />
        </mxCell>
        <mxCell id="ew9iyMlm-J7ILumPAnAc-87" value="" style="fillColor=none;strokeColor=#FF8000;dashed=1;verticalAlign=top;fontStyle=0;fontColor=#5A6C86;whiteSpace=wrap;html=1;" parent="ew9iyMlm-J7ILumPAnAc-86" vertex="1">
          <mxGeometry width="320" height="130" as="geometry" />
        </mxCell>
        <mxCell id="ew9iyMlm-J7ILumPAnAc-88" value="" style="sketch=0;outlineConnect=0;fontColor=#232F3E;gradientColor=none;fillColor=#ED7100;strokeColor=none;dashed=0;verticalLabelPosition=bottom;verticalAlign=top;align=center;html=1;fontSize=12;fontStyle=0;aspect=fixed;pointerEvents=1;shape=mxgraph.aws4.container_1;" parent="ew9iyMlm-J7ILumPAnAc-86" vertex="1">
          <mxGeometry x="128.39" y="44.58" width="63.23" height="40.84" as="geometry" />
        </mxCell>
        <mxCell id="ew9iyMlm-J7ILumPAnAc-161" value="&lt;h1&gt;&lt;font style=&quot;color: light-dark(rgb(237, 113, 0), rgb(237, 237, 237)); font-size: 20px;&quot;&gt;Fargate&lt;/font&gt;&lt;/h1&gt;" style="text;strokeColor=none;align=center;fillColor=none;html=1;verticalAlign=middle;whiteSpace=wrap;rounded=0;fontStyle=1;fontFamily=Helvetica;" parent="ew9iyMlm-J7ILumPAnAc-86" vertex="1">
          <mxGeometry x="60" width="90" height="30" as="geometry" />
        </mxCell>
        <mxCell id="ew9iyMlm-J7ILumPAnAc-163" value="&lt;h1&gt;&lt;font style=&quot;font-size: 18px; color: light-dark(rgb(26, 26, 26), rgb(237, 237, 237));&quot;&gt;Container&lt;/font&gt;&lt;/h1&gt;" style="text;strokeColor=none;align=center;fillColor=none;html=1;verticalAlign=middle;whiteSpace=wrap;rounded=0;fontStyle=1;fontFamily=Helvetica;" parent="ew9iyMlm-J7ILumPAnAc-86" vertex="1">
          <mxGeometry x="115.00999999999999" y="85.41999999999996" width="90" height="30" as="geometry" />
        </mxCell>
        <mxCell id="ew9iyMlm-J7ILumPAnAc-68" style="edgeStyle=orthogonalEdgeStyle;rounded=0;orthogonalLoop=1;jettySize=auto;html=1;strokeColor=#1A1A1A;" parent="ew9iyMlm-J7ILumPAnAc-62" source="ew9iyMlm-J7ILumPAnAc-63" edge="1">
          <mxGeometry relative="1" as="geometry">
            <mxPoint x="627.9999999999998" y="-283.0009109542243" as="sourcePoint" />
            <mxPoint x="628.89" as="targetPoint" />
            <Array as="points" />
          </mxGeometry>
        </mxCell>
        <mxCell id="ew9iyMlm-J7ILumPAnAc-154" value="&lt;h1&gt;&lt;font style=&quot;color: light-dark(rgb(237, 113, 0), rgb(237, 237, 237)); font-size: 20px;&quot;&gt;ECS&lt;/font&gt;&lt;/h1&gt;" style="text;strokeColor=none;align=center;fillColor=none;html=1;verticalAlign=middle;whiteSpace=wrap;rounded=0;fontStyle=1;fontFamily=Helvetica;" parent="ew9iyMlm-J7ILumPAnAc-62" vertex="1">
          <mxGeometry x="80" y="20.23" width="60" height="30" as="geometry" />
        </mxCell>
        <mxCell id="ew9iyMlm-J7ILumPAnAc-63" value="" style="sketch=0;outlineConnect=0;fontColor=#232F3E;gradientColor=none;fillColor=#8C4FFF;strokeColor=none;dashed=0;verticalLabelPosition=bottom;verticalAlign=top;align=center;html=1;fontSize=12;fontStyle=0;aspect=fixed;pointerEvents=1;shape=mxgraph.aws4.application_load_balancer;" parent="ew9iyMlm-J7ILumPAnAc-1" vertex="1">
          <mxGeometry x="740" y="330" width="78" height="78" as="geometry" />
        </mxCell>
        <mxCell id="ew9iyMlm-J7ILumPAnAc-21" value="" style="sketch=0;outlineConnect=0;fontColor=#232F3E;gradientColor=none;fillColor=#8C4FFF;strokeColor=none;dashed=0;verticalLabelPosition=bottom;verticalAlign=top;align=center;html=1;fontSize=12;fontStyle=0;aspect=fixed;pointerEvents=1;shape=mxgraph.aws4.internet_gateway;" parent="ew9iyMlm-J7ILumPAnAc-1" vertex="1">
          <mxGeometry x="738" y="167" width="80" height="80" as="geometry" />
        </mxCell>
        <mxCell id="ew9iyMlm-J7ILumPAnAc-146" style="edgeStyle=orthogonalEdgeStyle;rounded=0;orthogonalLoop=1;jettySize=auto;html=1;entryX=0.488;entryY=0.042;entryDx=0;entryDy=0;entryPerimeter=0;strokeColor=#0000FF;" parent="ew9iyMlm-J7ILumPAnAc-1" source="ew9iyMlm-J7ILumPAnAc-21" target="ew9iyMlm-J7ILumPAnAc-63" edge="1">
          <mxGeometry relative="1" as="geometry" />
        </mxCell>
        <mxCell id="ew9iyMlm-J7ILumPAnAc-148" value="&lt;font face=&quot;Helvetica&quot; style=&quot;font-size: 13px; color: rgb(26, 26, 26);&quot;&gt;&lt;b&gt;Application Load Balancer&lt;/b&gt;&lt;/font&gt;" style="edgeLabel;html=1;align=center;verticalAlign=middle;resizable=0;points=[];labelBackgroundColor=none;" parent="ew9iyMlm-J7ILumPAnAc-1" vertex="1" connectable="0">
          <mxGeometry x="778" y="429.99964790644015" as="geometry" />
        </mxCell>
        <mxCell id="ew9iyMlm-J7ILumPAnAc-152" value="&lt;font style=&quot;font-size: 13px; color: rgb(26, 26, 26);&quot;&gt;NAT Gateway&lt;/font&gt;" style="text;strokeColor=none;align=center;fillColor=none;html=1;verticalAlign=middle;whiteSpace=wrap;rounded=0;fontStyle=1" parent="ew9iyMlm-J7ILumPAnAc-1" vertex="1">
          <mxGeometry x="350" y="460" width="100" height="30" as="geometry" />
        </mxCell>
        <mxCell id="ew9iyMlm-J7ILumPAnAc-149" value="&lt;font face=&quot;Helvetica&quot; style=&quot;font-size: 13px; color: rgb(26, 26, 26);&quot;&gt;&lt;b&gt;Internet Gateway&lt;/b&gt;&lt;/font&gt;" style="edgeLabel;html=1;align=center;verticalAlign=middle;resizable=0;points=[];labelBackgroundColor=none;" parent="ew9iyMlm-J7ILumPAnAc-1" vertex="1" connectable="0">
          <mxGeometry x="775" y="270.3296479064402" as="geometry" />
        </mxCell>
        <mxCell id="ew9iyMlm-J7ILumPAnAc-96" style="edgeStyle=orthogonalEdgeStyle;rounded=0;orthogonalLoop=1;jettySize=auto;html=1;strokeColor=#1A1A1A;entryX=0.5;entryY=1;entryDx=0;entryDy=0;" parent="ew9iyMlm-J7ILumPAnAc-1" source="ew9iyMlm-J7ILumPAnAc-74" target="ew9iyMlm-J7ILumPAnAc-152" edge="1">
          <mxGeometry relative="1" as="geometry">
            <mxPoint x="400" y="454" as="targetPoint" />
          </mxGeometry>
        </mxCell>
        <mxCell id="ew9iyMlm-J7ILumPAnAc-25" style="edgeStyle=orthogonalEdgeStyle;rounded=0;orthogonalLoop=1;jettySize=auto;html=1;strokeColor=#1A1A1A;" parent="1" source="ew9iyMlm-J7ILumPAnAc-19" target="ew9iyMlm-J7ILumPAnAc-21" edge="1">
          <mxGeometry relative="1" as="geometry">
            <mxPoint x="-50" y="288.4666666666667" as="sourcePoint" />
            <mxPoint x="292" y="159.99908904577558" as="targetPoint" />
            <Array as="points">
              <mxPoint x="-81" y="130" />
            </Array>
          </mxGeometry>
        </mxCell>
        <mxCell id="ew9iyMlm-J7ILumPAnAc-95" value="Auto Scaling group" style="points=[[0,0],[0.25,0],[0.5,0],[0.75,0],[1,0],[1,0.25],[1,0.5],[1,0.75],[1,1],[0.75,1],[0.5,1],[0.25,1],[0,1],[0,0.75],[0,0.5],[0,0.25]];outlineConnect=0;gradientColor=none;html=1;whiteSpace=wrap;fontSize=12;fontStyle=0;container=1;pointerEvents=0;collapsible=0;recursiveResize=0;shape=mxgraph.aws4.groupCenter;grIcon=mxgraph.aws4.group_auto_scaling_group;grStroke=1;strokeColor=#D86613;fillColor=none;verticalAlign=top;align=center;fontColor=#D86613;dashed=1;spacingTop=25;strokeWidth=2;" parent="1" vertex="1">
          <mxGeometry x="-385" y="583" width="1395" height="460" as="geometry" />
        </mxCell>
        <mxCell id="ew9iyMlm-J7ILumPAnAc-104" value="" style="sketch=0;points=[[0,0,0],[0.25,0,0],[0.5,0,0],[0.75,0,0],[1,0,0],[0,1,0],[0.25,1,0],[0.5,1,0],[0.75,1,0],[1,1,0],[0,0.25,0],[0,0.5,0],[0,0.75,0],[1,0.25,0],[1,0.5,0],[1,0.75,0]];outlineConnect=0;fontColor=#232F3E;fillColor=#ED7100;strokeColor=#ffffff;dashed=0;verticalLabelPosition=bottom;verticalAlign=top;align=center;html=1;fontSize=12;fontStyle=0;aspect=fixed;shape=mxgraph.aws4.resourceIcon;resIcon=mxgraph.aws4.ecr;" parent="1" vertex="1">
          <mxGeometry x="-830" y="530" width="140" height="140" as="geometry" />
        </mxCell>
        <mxCell id="ew9iyMlm-J7ILumPAnAc-105" style="edgeStyle=orthogonalEdgeStyle;rounded=0;orthogonalLoop=1;jettySize=auto;html=1;entryX=-0.003;entryY=0.448;entryDx=0;entryDy=0;entryPerimeter=0;strokeColor=#1A1A1A;" parent="1" source="ew9iyMlm-J7ILumPAnAc-104" target="ew9iyMlm-J7ILumPAnAc-60" edge="1">
          <mxGeometry relative="1" as="geometry" />
        </mxCell>
        <mxCell id="ew9iyMlm-J7ILumPAnAc-106" value="" style="dashed=0;outlineConnect=0;html=1;align=center;labelPosition=center;verticalLabelPosition=bottom;verticalAlign=top;shape=mxgraph.weblogos.github" parent="1" vertex="1">
          <mxGeometry x="-2936" y="540" width="86" height="86" as="geometry" />
        </mxCell>
        <mxCell id="ew9iyMlm-J7ILumPAnAc-108" value="" style="fillColor=none;strokeColor=#000000;dashed=0;verticalAlign=top;fontStyle=0;fontColor=#232F3D;whiteSpace=wrap;html=1;strokeWidth=2;" parent="1" vertex="1">
          <mxGeometry x="-2990" y="520" width="1990" height="720" as="geometry" />
        </mxCell>
        <mxCell id="ew9iyMlm-J7ILumPAnAc-112" value="&lt;span style=&quot;white-space: pre;&quot;&gt;&#x9;&lt;/span&gt;&lt;span style=&quot;white-space: pre;&quot;&gt;&#x9;&lt;/span&gt;&lt;span style=&quot;white-space: pre;&quot;&gt;&#x9;&lt;/span&gt;&lt;span style=&quot;white-space: pre;&quot;&gt;&#x9;&lt;/span&gt;" style="fillColor=none;strokeColor=#006633;dashed=1;verticalAlign=top;fontStyle=0;fontColor=#232F3D;whiteSpace=wrap;html=1;strokeWidth=2;" parent="1" vertex="1">
          <mxGeometry x="-2950" y="670" width="1900" height="540" as="geometry" />
        </mxCell>
        <mxCell id="ew9iyMlm-J7ILumPAnAc-177" style="edgeStyle=orthogonalEdgeStyle;rounded=0;orthogonalLoop=1;jettySize=auto;html=1;entryX=0;entryY=0.5;entryDx=0;entryDy=0;" parent="1" source="ew9iyMlm-J7ILumPAnAc-113" target="ew9iyMlm-J7ILumPAnAc-116" edge="1">
          <mxGeometry relative="1" as="geometry" />
        </mxCell>
        <mxCell id="ew9iyMlm-J7ILumPAnAc-113" value="" style="shape=image;verticalLabelPosition=bottom;verticalAlign=top;imageAspect=0;aspect=fixed;image=data:image/svg+xml,PHN2ZyB4bWxucz0iaHR0cDovL3d3dy53My5vcmcvMjAwMC9zdmciIHZpZXdCb3g9IjAgMCAyNCAyNCIgcm9sZT0iaW1nIiB3aWR0aD0iMjQiIGhlaWdodD0iMjQiPjx0aXRsZT5HaXRIdWIgQWN0aW9uczwvdGl0bGU+PHBhdGggZD0iTTEwLjk4NCAxMy44MzZhLjUuNSAwIDAgMS0uMzUzLS4xNDZsLS43NDUtLjc0M2EuNS41IDAgMSAxIC43MDYtLjcwOGwuMzkyLjM5MSAxLjE4MS0xLjE4YS41LjUgMCAwIDEgLjcwOC43MDdsLTEuNTM1IDEuNTMzYS41MDQuNTA0IDAgMCAxLS4zNTQuMTQ2em05LjM1My0uMTQ3bDEuNTM0LTEuNTMyYS41LjUgMCAwIDAtLjcwNy0uNzA3bC0xLjE4MSAxLjE4LS4zOTItLjM5MWEuNS41IDAgMSAwLS43MDYuNzA4bC43NDYuNzQzYS40OTcuNDk3IDAgMCAwIC43MDYtLjAwMXpNNC41MjcgNy40NTJsMi41NTctMS41ODVBMSAxIDAgMCAwIDcuMDkgNC4xN0w0LjUzMyAyLjU2QTEgMSAwIDAgMCAzIDMuNDA2djMuMTk2YTEuMDAxIDEuMDAxIDAgMCAwIDEuNTI3Ljg1em0yLjAzLTIuNDM2TDQgNi42MDJWMy40MDZsMi41NTcgMS42MXpNMjQgMTIuNWMwIDEuOTMtMS41NyAzLjUtMy41IDMuNWEzLjUwMyAzLjUwMyAwIDAgMS0zLjQ2LTNoLTIuMDhhMy41MDMgMy41MDMgMCAwIDEtMy40NiAzIDMuNTAyIDMuNTAyIDAgMCAxLTMuNDYtM2gtLjU1OGMtLjk3MiAwLTEuODUtLjM5OS0yLjQ4Mi0xLjA0MlYxN2MwIDEuNjU0IDEuMzQ2IDMgMyAzaC4wNGMuMjQ0LTEuNjkzIDEuNy0zIDMuNDYtMyAxLjkzIDAgMy41IDEuNTcgMy41IDMuNVMxMy40MyAyNCAxMS41IDI0YTMuNTAyIDMuNTAyIDAgMCAxLTMuNDYtM0g4Yy0yLjIwNiAwLTQtMS43OTQtNC00VjkuODk5QTUuMDA4IDUuMDA4IDAgMCAxIDAgNWMwLTIuNzU3IDIuMjQzLTUgNS01czUgMi4yNDMgNSA1YTUuMDA1IDUuMDA1IDAgMCAxLTQuOTUyIDQuOTk4QTIuNDgyIDIuNDgyIDAgMCAwIDcuNDgyIDEyaC41NThjLjI0NC0xLjY5MyAxLjctMyAzLjQ2LTNhMy41MDIgMy41MDIgMCAwIDEgMy40NiAzaDIuMDhhMy41MDMgMy41MDMgMCAwIDEgMy40Ni0zYzEuOTMgMCAzLjUgMS41NyAzLjUgMy41em0tMTUgOGMwIDEuMzc4IDEuMTIyIDIuNSAyLjUgMi41czIuNS0xLjEyMiAyLjUtMi41LTEuMTIyLTIuNS0yLjUtMi41UzkgMTkuMTIyIDkgMjAuNXpNNSA5YzIuMjA2IDAgNC0xLjc5NCA0LTRTNy4yMDYgMSA1IDEgMSAyLjc5NCAxIDVzMS43OTQgNCA0IDR6bTkgMy41YzAtMS4zNzgtMS4xMjItMi41LTIuNS0yLjVTOSAxMS4xMjIgOSAxMi41czEuMTIyIDIuNSAyLjUgMi41IDIuNS0xLjEyMiAyLjUtMi41em05IDBjMC0xLjM3OC0xLjEyMi0yLjUtMi41LTIuNVMxOCAxMS4xMjIgMTggMTIuNXMxLjEyMiAyLjUgMi41IDIuNSAyLjUtMS4xMjIgMi41LTIuNXptLTEzIDhhLjUuNSAwIDEgMCAxIDAgLjUuNSAwIDAgMC0xIDB6bTIgMGEuNS41IDAgMSAwIDEgMCAuNS41IDAgMCAwLTEgMHptMTIgMGMwIDEuOTMtMS41NyAzLjUtMy41IDMuNWEzLjUwMyAzLjUwMyAwIDAgMS0zLjQ2LTMuMDAyYy0uMDA3LjAwMS0uMDEzLjAwNS0uMDIxLjAwNWwtLjUwNi4wMTdoLS4wMTdhLjUuNSAwIDAgMS0uMDE2LS45OTlsLjUwNi0uMDE3Yy4wMTgtLjAwMi4wMzUuMDA2LjA1Mi4wMDdBMy41MDMgMy41MDMgMCAwIDEgMjAuNSAxN2MxLjkzIDAgMy41IDEuNTcgMy41IDMuNXptLTEgMGMwLTEuMzc4LTEuMTIyLTIuNS0yLjUtMi41UzE4IDE5LjEyMiAxOCAyMC41czEuMTIyIDIuNSAyLjUgMi41IDIuNS0xLjEyMiAyLjUtMi41eiIvPjwvc3ZnPg==;fontColor=none;noLabel=1;imageBackground=none;fillStyle=solid;imageBorder=none;" parent="1" vertex="1">
          <mxGeometry x="-1740" y="933" width="110" height="110" as="geometry" />
        </mxCell>
        <mxCell id="ew9iyMlm-J7ILumPAnAc-119" style="edgeStyle=orthogonalEdgeStyle;rounded=0;orthogonalLoop=1;jettySize=auto;html=1;strokeColor=#1A1A1A;" parent="1" source="ew9iyMlm-J7ILumPAnAc-114" target="ew9iyMlm-J7ILumPAnAc-115" edge="1">
          <mxGeometry relative="1" as="geometry" />
        </mxCell>
        <mxCell id="ew9iyMlm-J7ILumPAnAc-114" value="" style="shape=image;verticalLabelPosition=bottom;verticalAlign=top;imageAspect=0;aspect=fixed;image=data:image/svg+xml,PHN2ZyB4bWxucz0iaHR0cDovL3d3dy53My5vcmcvMjAwMC9zdmciIHZpZXdCb3g9IjAgMCAyNCAyNCIgcm9sZT0iaW1nIiB3aWR0aD0iMjQiIGhlaWdodD0iMjQiPjx0aXRsZT5HaXRIdWIgQWN0aW9uczwvdGl0bGU+PHBhdGggZD0iTTEwLjk4NCAxMy44MzZhLjUuNSAwIDAgMS0uMzUzLS4xNDZsLS43NDUtLjc0M2EuNS41IDAgMSAxIC43MDYtLjcwOGwuMzkyLjM5MSAxLjE4MS0xLjE4YS41LjUgMCAwIDEgLjcwOC43MDdsLTEuNTM1IDEuNTMzYS41MDQuNTA0IDAgMCAxLS4zNTQuMTQ2em05LjM1My0uMTQ3bDEuNTM0LTEuNTMyYS41LjUgMCAwIDAtLjcwNy0uNzA3bC0xLjE4MSAxLjE4LS4zOTItLjM5MWEuNS41IDAgMSAwLS43MDYuNzA4bC43NDYuNzQzYS40OTcuNDk3IDAgMCAwIC43MDYtLjAwMXpNNC41MjcgNy40NTJsMi41NTctMS41ODVBMSAxIDAgMCAwIDcuMDkgNC4xN0w0LjUzMyAyLjU2QTEgMSAwIDAgMCAzIDMuNDA2djMuMTk2YTEuMDAxIDEuMDAxIDAgMCAwIDEuNTI3Ljg1em0yLjAzLTIuNDM2TDQgNi42MDJWMy40MDZsMi41NTcgMS42MXpNMjQgMTIuNWMwIDEuOTMtMS41NyAzLjUtMy41IDMuNWEzLjUwMyAzLjUwMyAwIDAgMS0zLjQ2LTNoLTIuMDhhMy41MDMgMy41MDMgMCAwIDEtMy40NiAzIDMuNTAyIDMuNTAyIDAgMCAxLTMuNDYtM2gtLjU1OGMtLjk3MiAwLTEuODUtLjM5OS0yLjQ4Mi0xLjA0MlYxN2MwIDEuNjU0IDEuMzQ2IDMgMyAzaC4wNGMuMjQ0LTEuNjkzIDEuNy0zIDMuNDYtMyAxLjkzIDAgMy41IDEuNTcgMy41IDMuNVMxMy40MyAyNCAxMS41IDI0YTMuNTAyIDMuNTAyIDAgMCAxLTMuNDYtM0g4Yy0yLjIwNiAwLTQtMS43OTQtNC00VjkuODk5QTUuMDA4IDUuMDA4IDAgMCAxIDAgNWMwLTIuNzU3IDIuMjQzLTUgNS01czUgMi4yNDMgNSA1YTUuMDA1IDUuMDA1IDAgMCAxLTQuOTUyIDQuOTk4QTIuNDgyIDIuNDgyIDAgMCAwIDcuNDgyIDEyaC41NThjLjI0NC0xLjY5MyAxLjctMyAzLjQ2LTNhMy41MDIgMy41MDIgMCAwIDEgMy40NiAzaDIuMDhhMy41MDMgMy41MDMgMCAwIDEgMy40Ni0zYzEuOTMgMCAzLjUgMS41NyAzLjUgMy41em0tMTUgOGMwIDEuMzc4IDEuMTIyIDIuNSAyLjUgMi41czIuNS0xLjEyMiAyLjUtMi41LTEuMTIyLTIuNS0yLjUtMi41UzkgMTkuMTIyIDkgMjAuNXpNNSA5YzIuMjA2IDAgNC0xLjc5NCA0LTRTNy4yMDYgMSA1IDEgMSAyLjc5NCAxIDVzMS43OTQgNCA0IDR6bTkgMy41YzAtMS4zNzgtMS4xMjItMi41LTIuNS0yLjVTOSAxMS4xMjIgOSAxMi41czEuMTIyIDIuNSAyLjUgMi41IDIuNS0xLjEyMiAyLjUtMi41em05IDBjMC0xLjM3OC0xLjEyMi0yLjUtMi41LTIuNVMxOCAxMS4xMjIgMTggMTIuNXMxLjEyMiAyLjUgMi41IDIuNSAyLjUtMS4xMjIgMi41LTIuNXptLTEzIDhhLjUuNSAwIDEgMCAxIDAgLjUuNSAwIDAgMC0xIDB6bTIgMGEuNS41IDAgMSAwIDEgMCAuNS41IDAgMCAwLTEgMHptMTIgMGMwIDEuOTMtMS41NyAzLjUtMy41IDMuNWEzLjUwMyAzLjUwMyAwIDAgMS0zLjQ2LTMuMDAyYy0uMDA3LjAwMS0uMDEzLjAwNS0uMDIxLjAwNWwtLjUwNi4wMTdoLS4wMTdhLjUuNSAwIDAgMS0uMDE2LS45OTlsLjUwNi0uMDE3Yy4wMTgtLjAwMi4wMzUuMDA2LjA1Mi4wMDdBMy41MDMgMy41MDMgMCAwIDEgMjAuNSAxN2MxLjkzIDAgMy41IDEuNTcgMy41IDMuNXptLTEgMGMwLTEuMzc4LTEuMTIyLTIuNS0yLjUtMi41UzE4IDE5LjEyMiAxOCAyMC41czEuMTIyIDIuNSAyLjUgMi41IDIuNS0xLjEyMiAyLjUtMi41eiIvPjwvc3ZnPg==;fontColor=none;noLabel=1;imageBackground=none;fillStyle=solid;imageBorder=none;" parent="1" vertex="1">
          <mxGeometry x="-2460" y="933" width="110" height="110" as="geometry" />
        </mxCell>
        <mxCell id="ew9iyMlm-J7ILumPAnAc-120" style="edgeStyle=orthogonalEdgeStyle;rounded=0;orthogonalLoop=1;jettySize=auto;html=1;entryX=0;entryY=0.5;entryDx=0;entryDy=0;strokeColor=#1A1A1A;" parent="1" source="ew9iyMlm-J7ILumPAnAc-115" target="ew9iyMlm-J7ILumPAnAc-113" edge="1">
          <mxGeometry relative="1" as="geometry" />
        </mxCell>
        <mxCell id="ew9iyMlm-J7ILumPAnAc-115" value="" style="shape=image;verticalLabelPosition=bottom;verticalAlign=top;imageAspect=0;aspect=fixed;image=data:image/svg+xml,PHN2ZyB4bWxucz0iaHR0cDovL3d3dy53My5vcmcvMjAwMC9zdmciIHZpZXdCb3g9IjAgMCAyNCAyNCIgcm9sZT0iaW1nIiB3aWR0aD0iMjQiIGhlaWdodD0iMjQiPjx0aXRsZT5HaXRIdWIgQWN0aW9uczwvdGl0bGU+PHBhdGggZD0iTTEwLjk4NCAxMy44MzZhLjUuNSAwIDAgMS0uMzUzLS4xNDZsLS43NDUtLjc0M2EuNS41IDAgMSAxIC43MDYtLjcwOGwuMzkyLjM5MSAxLjE4MS0xLjE4YS41LjUgMCAwIDEgLjcwOC43MDdsLTEuNTM1IDEuNTMzYS41MDQuNTA0IDAgMCAxLS4zNTQuMTQ2em05LjM1My0uMTQ3bDEuNTM0LTEuNTMyYS41LjUgMCAwIDAtLjcwNy0uNzA3bC0xLjE4MSAxLjE4LS4zOTItLjM5MWEuNS41IDAgMSAwLS43MDYuNzA4bC43NDYuNzQzYS40OTcuNDk3IDAgMCAwIC43MDYtLjAwMXpNNC41MjcgNy40NTJsMi41NTctMS41ODVBMSAxIDAgMCAwIDcuMDkgNC4xN0w0LjUzMyAyLjU2QTEgMSAwIDAgMCAzIDMuNDA2djMuMTk2YTEuMDAxIDEuMDAxIDAgMCAwIDEuNTI3Ljg1em0yLjAzLTIuNDM2TDQgNi42MDJWMy40MDZsMi41NTcgMS42MXpNMjQgMTIuNWMwIDEuOTMtMS41NyAzLjUtMy41IDMuNWEzLjUwMyAzLjUwMyAwIDAgMS0zLjQ2LTNoLTIuMDhhMy41MDMgMy41MDMgMCAwIDEtMy40NiAzIDMuNTAyIDMuNTAyIDAgMCAxLTMuNDYtM2gtLjU1OGMtLjk3MiAwLTEuODUtLjM5OS0yLjQ4Mi0xLjA0MlYxN2MwIDEuNjU0IDEuMzQ2IDMgMyAzaC4wNGMuMjQ0LTEuNjkzIDEuNy0zIDMuNDYtMyAxLjkzIDAgMy41IDEuNTcgMy41IDMuNVMxMy40MyAyNCAxMS41IDI0YTMuNTAyIDMuNTAyIDAgMCAxLTMuNDYtM0g4Yy0yLjIwNiAwLTQtMS43OTQtNC00VjkuODk5QTUuMDA4IDUuMDA4IDAgMCAxIDAgNWMwLTIuNzU3IDIuMjQzLTUgNS01czUgMi4yNDMgNSA1YTUuMDA1IDUuMDA1IDAgMCAxLTQuOTUyIDQuOTk4QTIuNDgyIDIuNDgyIDAgMCAwIDcuNDgyIDEyaC41NThjLjI0NC0xLjY5MyAxLjctMyAzLjQ2LTNhMy41MDIgMy41MDIgMCAwIDEgMy40NiAzaDIuMDhhMy41MDMgMy41MDMgMCAwIDEgMy40Ni0zYzEuOTMgMCAzLjUgMS41NyAzLjUgMy41em0tMTUgOGMwIDEuMzc4IDEuMTIyIDIuNSAyLjUgMi41czIuNS0xLjEyMiAyLjUtMi41LTEuMTIyLTIuNS0yLjUtMi41UzkgMTkuMTIyIDkgMjAuNXpNNSA5YzIuMjA2IDAgNC0xLjc5NCA0LTRTNy4yMDYgMSA1IDEgMSAyLjc5NCAxIDVzMS43OTQgNCA0IDR6bTkgMy41YzAtMS4zNzgtMS4xMjItMi41LTIuNS0yLjVTOSAxMS4xMjIgOSAxMi41czEuMTIyIDIuNSAyLjUgMi41IDIuNS0xLjEyMiAyLjUtMi41em05IDBjMC0xLjM3OC0xLjEyMi0yLjUtMi41LTIuNVMxOCAxMS4xMjIgMTggMTIuNXMxLjEyMiAyLjUgMi41IDIuNSAyLjUtMS4xMjIgMi41LTIuNXptLTEzIDhhLjUuNSAwIDEgMCAxIDAgLjUuNSAwIDAgMC0xIDB6bTIgMGEuNS41IDAgMSAwIDEgMCAuNS41IDAgMCAwLTEgMHptMTIgMGMwIDEuOTMtMS41NyAzLjUtMy41IDMuNWEzLjUwMyAzLjUwMyAwIDAgMS0zLjQ2LTMuMDAyYy0uMDA3LjAwMS0uMDEzLjAwNS0uMDIxLjAwNWwtLjUwNi4wMTdoLS4wMTdhLjUuNSAwIDAgMS0uMDE2LS45OTlsLjUwNi0uMDE3Yy4wMTgtLjAwMi4wMzUuMDA2LjA1Mi4wMDdBMy41MDMgMy41MDMgMCAwIDEgMjAuNSAxN2MxLjkzIDAgMy41IDEuNTcgMy41IDMuNXptLTEgMGMwLTEuMzc4LTEuMTIyLTIuNS0yLjUtMi41UzE4IDE5LjEyMiAxOCAyMC41czEuMTIyIDIuNSAyLjUgMi41IDIuNS0xLjEyMiAyLjUtMi41eiIvPjwvc3ZnPg==;fontColor=none;noLabel=1;imageBackground=none;fillStyle=solid;imageBorder=none;" parent="1" vertex="1">
          <mxGeometry x="-2100" y="933" width="110" height="110" as="geometry" />
        </mxCell>
        <mxCell id="ew9iyMlm-J7ILumPAnAc-122" style="edgeStyle=orthogonalEdgeStyle;rounded=0;orthogonalLoop=1;jettySize=auto;html=1;strokeColor=#1A1A1A;" parent="1" source="ew9iyMlm-J7ILumPAnAc-116" target="ew9iyMlm-J7ILumPAnAc-123" edge="1">
          <mxGeometry relative="1" as="geometry" />
        </mxCell>
        <mxCell id="ew9iyMlm-J7ILumPAnAc-116" value="" style="shape=image;verticalLabelPosition=bottom;verticalAlign=top;imageAspect=0;aspect=fixed;image=data:image/svg+xml,PHN2ZyB4bWxucz0iaHR0cDovL3d3dy53My5vcmcvMjAwMC9zdmciIHZpZXdCb3g9IjAgMCAyNCAyNCIgcm9sZT0iaW1nIiB3aWR0aD0iMjQiIGhlaWdodD0iMjQiPjx0aXRsZT5HaXRIdWIgQWN0aW9uczwvdGl0bGU+PHBhdGggZD0iTTEwLjk4NCAxMy44MzZhLjUuNSAwIDAgMS0uMzUzLS4xNDZsLS43NDUtLjc0M2EuNS41IDAgMSAxIC43MDYtLjcwOGwuMzkyLjM5MSAxLjE4MS0xLjE4YS41LjUgMCAwIDEgLjcwOC43MDdsLTEuNTM1IDEuNTMzYS41MDQuNTA0IDAgMCAxLS4zNTQuMTQ2em05LjM1My0uMTQ3bDEuNTM0LTEuNTMyYS41LjUgMCAwIDAtLjcwNy0uNzA3bC0xLjE4MSAxLjE4LS4zOTItLjM5MWEuNS41IDAgMSAwLS43MDYuNzA4bC43NDYuNzQzYS40OTcuNDk3IDAgMCAwIC43MDYtLjAwMXpNNC41MjcgNy40NTJsMi41NTctMS41ODVBMSAxIDAgMCAwIDcuMDkgNC4xN0w0LjUzMyAyLjU2QTEgMSAwIDAgMCAzIDMuNDA2djMuMTk2YTEuMDAxIDEuMDAxIDAgMCAwIDEuNTI3Ljg1em0yLjAzLTIuNDM2TDQgNi42MDJWMy40MDZsMi41NTcgMS42MXpNMjQgMTIuNWMwIDEuOTMtMS41NyAzLjUtMy41IDMuNWEzLjUwMyAzLjUwMyAwIDAgMS0zLjQ2LTNoLTIuMDhhMy41MDMgMy41MDMgMCAwIDEtMy40NiAzIDMuNTAyIDMuNTAyIDAgMCAxLTMuNDYtM2gtLjU1OGMtLjk3MiAwLTEuODUtLjM5OS0yLjQ4Mi0xLjA0MlYxN2MwIDEuNjU0IDEuMzQ2IDMgMyAzaC4wNGMuMjQ0LTEuNjkzIDEuNy0zIDMuNDYtMyAxLjkzIDAgMy41IDEuNTcgMy41IDMuNVMxMy40MyAyNCAxMS41IDI0YTMuNTAyIDMuNTAyIDAgMCAxLTMuNDYtM0g4Yy0yLjIwNiAwLTQtMS43OTQtNC00VjkuODk5QTUuMDA4IDUuMDA4IDAgMCAxIDAgNWMwLTIuNzU3IDIuMjQzLTUgNS01czUgMi4yNDMgNSA1YTUuMDA1IDUuMDA1IDAgMCAxLTQuOTUyIDQuOTk4QTIuNDgyIDIuNDgyIDAgMCAwIDcuNDgyIDEyaC41NThjLjI0NC0xLjY5MyAxLjctMyAzLjQ2LTNhMy41MDIgMy41MDIgMCAwIDEgMy40NiAzaDIuMDhhMy41MDMgMy41MDMgMCAwIDEgMy40Ni0zYzEuOTMgMCAzLjUgMS41NyAzLjUgMy41em0tMTUgOGMwIDEuMzc4IDEuMTIyIDIuNSAyLjUgMi41czIuNS0xLjEyMiAyLjUtMi41LTEuMTIyLTIuNS0yLjUtMi41UzkgMTkuMTIyIDkgMjAuNXpNNSA5YzIuMjA2IDAgNC0xLjc5NCA0LTRTNy4yMDYgMSA1IDEgMSAyLjc5NCAxIDVzMS43OTQgNCA0IDR6bTkgMy41YzAtMS4zNzgtMS4xMjItMi41LTIuNS0yLjVTOSAxMS4xMjIgOSAxMi41czEuMTIyIDIuNSAyLjUgMi41IDIuNS0xLjEyMiAyLjUtMi41em05IDBjMC0xLjM3OC0xLjEyMi0yLjUtMi41LTIuNVMxOCAxMS4xMjIgMTggMTIuNXMxLjEyMiAyLjUgMi41IDIuNSAyLjUtMS4xMjIgMi41LTIuNXptLTEzIDhhLjUuNSAwIDEgMCAxIDAgLjUuNSAwIDAgMC0xIDB6bTIgMGEuNS41IDAgMSAwIDEgMCAuNS41IDAgMCAwLTEgMHptMTIgMGMwIDEuOTMtMS41NyAzLjUtMy41IDMuNWEzLjUwMyAzLjUwMyAwIDAgMS0zLjQ2LTMuMDAyYy0uMDA3LjAwMS0uMDEzLjAwNS0uMDIxLjAwNWwtLjUwNi4wMTdoLS4wMTdhLjUuNSAwIDAgMS0uMDE2LS45OTlsLjUwNi0uMDE3Yy4wMTgtLjAwMi4wMzUuMDA2LjA1Mi4wMDdBMy41MDMgMy41MDMgMCAwIDEgMjAuNSAxN2MxLjkzIDAgMy41IDEuNTcgMy41IDMuNXptLTEgMGMwLTEuMzc4LTEuMTIyLTIuNS0yLjUtMi41UzE4IDE5LjEyMiAxOCAyMC41czEuMTIyIDIuNSAyLjUgMi41IDIuNS0xLjEyMiAyLjUtMi41eiIvPjwvc3ZnPg==;fontColor=none;imageBackground=none;fillStyle=solid;imageBorder=none;textShadow=0;noLabel=1;sketch=1;curveFitting=1;jiggle=2;" parent="1" vertex="1">
          <mxGeometry x="-1340" y="933" width="110" height="110" as="geometry" />
        </mxCell>
        <mxCell id="ew9iyMlm-J7ILumPAnAc-118" style="edgeStyle=orthogonalEdgeStyle;rounded=0;orthogonalLoop=1;jettySize=auto;html=1;strokeColor=#1A1A1A;" parent="1" source="ew9iyMlm-J7ILumPAnAc-117" target="ew9iyMlm-J7ILumPAnAc-114" edge="1">
          <mxGeometry relative="1" as="geometry" />
        </mxCell>
        <mxCell id="ew9iyMlm-J7ILumPAnAc-117" value="" style="shape=image;verticalLabelPosition=bottom;verticalAlign=top;imageAspect=0;aspect=fixed;image=data:image/svg+xml,PHN2ZyB4bWxucz0iaHR0cDovL3d3dy53My5vcmcvMjAwMC9zdmciIHZpZXdCb3g9IjAgMCAyNCAyNCIgcm9sZT0iaW1nIiB3aWR0aD0iMjQiIGhlaWdodD0iMjQiPjx0aXRsZT5HaXRIdWIgQWN0aW9uczwvdGl0bGU+PHBhdGggZD0iTTEwLjk4NCAxMy44MzZhLjUuNSAwIDAgMS0uMzUzLS4xNDZsLS43NDUtLjc0M2EuNS41IDAgMSAxIC43MDYtLjcwOGwuMzkyLjM5MSAxLjE4MS0xLjE4YS41LjUgMCAwIDEgLjcwOC43MDdsLTEuNTM1IDEuNTMzYS41MDQuNTA0IDAgMCAxLS4zNTQuMTQ2em05LjM1My0uMTQ3bDEuNTM0LTEuNTMyYS41LjUgMCAwIDAtLjcwNy0uNzA3bC0xLjE4MSAxLjE4LS4zOTItLjM5MWEuNS41IDAgMSAwLS43MDYuNzA4bC43NDYuNzQzYS40OTcuNDk3IDAgMCAwIC43MDYtLjAwMXpNNC41MjcgNy40NTJsMi41NTctMS41ODVBMSAxIDAgMCAwIDcuMDkgNC4xN0w0LjUzMyAyLjU2QTEgMSAwIDAgMCAzIDMuNDA2djMuMTk2YTEuMDAxIDEuMDAxIDAgMCAwIDEuNTI3Ljg1em0yLjAzLTIuNDM2TDQgNi42MDJWMy40MDZsMi41NTcgMS42MXpNMjQgMTIuNWMwIDEuOTMtMS41NyAzLjUtMy41IDMuNWEzLjUwMyAzLjUwMyAwIDAgMS0zLjQ2LTNoLTIuMDhhMy41MDMgMy41MDMgMCAwIDEtMy40NiAzIDMuNTAyIDMuNTAyIDAgMCAxLTMuNDYtM2gtLjU1OGMtLjk3MiAwLTEuODUtLjM5OS0yLjQ4Mi0xLjA0MlYxN2MwIDEuNjU0IDEuMzQ2IDMgMyAzaC4wNGMuMjQ0LTEuNjkzIDEuNy0zIDMuNDYtMyAxLjkzIDAgMy41IDEuNTcgMy41IDMuNVMxMy40MyAyNCAxMS41IDI0YTMuNTAyIDMuNTAyIDAgMCAxLTMuNDYtM0g4Yy0yLjIwNiAwLTQtMS43OTQtNC00VjkuODk5QTUuMDA4IDUuMDA4IDAgMCAxIDAgNWMwLTIuNzU3IDIuMjQzLTUgNS01czUgMi4yNDMgNSA1YTUuMDA1IDUuMDA1IDAgMCAxLTQuOTUyIDQuOTk4QTIuNDgyIDIuNDgyIDAgMCAwIDcuNDgyIDEyaC41NThjLjI0NC0xLjY5MyAxLjctMyAzLjQ2LTNhMy41MDIgMy41MDIgMCAwIDEgMy40NiAzaDIuMDhhMy41MDMgMy41MDMgMCAwIDEgMy40Ni0zYzEuOTMgMCAzLjUgMS41NyAzLjUgMy41em0tMTUgOGMwIDEuMzc4IDEuMTIyIDIuNSAyLjUgMi41czIuNS0xLjEyMiAyLjUtMi41LTEuMTIyLTIuNS0yLjUtMi41UzkgMTkuMTIyIDkgMjAuNXpNNSA5YzIuMjA2IDAgNC0xLjc5NCA0LTRTNy4yMDYgMSA1IDEgMSAyLjc5NCAxIDVzMS43OTQgNCA0IDR6bTkgMy41YzAtMS4zNzgtMS4xMjItMi41LTIuNS0yLjVTOSAxMS4xMjIgOSAxMi41czEuMTIyIDIuNSAyLjUgMi41IDIuNS0xLjEyMiAyLjUtMi41em05IDBjMC0xLjM3OC0xLjEyMi0yLjUtMi41LTIuNVMxOCAxMS4xMjIgMTggMTIuNXMxLjEyMiAyLjUgMi41IDIuNSAyLjUtMS4xMjIgMi41LTIuNXptLTEzIDhhLjUuNSAwIDEgMCAxIDAgLjUuNSAwIDAgMC0xIDB6bTIgMGEuNS41IDAgMSAwIDEgMCAuNS41IDAgMCAwLTEgMHptMTIgMGMwIDEuOTMtMS41NyAzLjUtMy41IDMuNWEzLjUwMyAzLjUwMyAwIDAgMS0zLjQ2LTMuMDAyYy0uMDA3LjAwMS0uMDEzLjAwNS0uMDIxLjAwNWwtLjUwNi4wMTdoLS4wMTdhLjUuNSAwIDAgMS0uMDE2LS45OTlsLjUwNi0uMDE3Yy4wMTgtLjAwMi4wMzUuMDA2LjA1Mi4wMDdBMy41MDMgMy41MDMgMCAwIDEgMjAuNSAxN2MxLjkzIDAgMy41IDEuNTcgMy41IDMuNXptLTEgMGMwLTEuMzc4LTEuMTIyLTIuNS0yLjUtMi41UzE4IDE5LjEyMiAxOCAyMC41czEuMTIyIDIuNSAyLjUgMi41IDIuNS0xLjEyMiAyLjUtMi41eiIvPjwvc3ZnPg==;fontColor=none;noLabel=1;imageBackground=none;fillStyle=solid;imageBorder=none;" parent="1" vertex="1">
          <mxGeometry x="-2850" y="933" width="110" height="110" as="geometry" />
        </mxCell>
        <mxCell id="ew9iyMlm-J7ILumPAnAc-126" style="edgeStyle=orthogonalEdgeStyle;rounded=0;orthogonalLoop=1;jettySize=auto;html=1;strokeColor=#1A1A1A;" parent="1" source="ew9iyMlm-J7ILumPAnAc-123" target="ew9iyMlm-J7ILumPAnAc-104" edge="1">
          <mxGeometry relative="1" as="geometry" />
        </mxCell>
        <mxCell id="ew9iyMlm-J7ILumPAnAc-123" value="" style="sketch=0;outlineConnect=0;fontColor=#232F3E;gradientColor=none;fillColor=#ED7100;strokeColor=none;dashed=0;verticalLabelPosition=bottom;verticalAlign=top;align=center;html=1;fontSize=12;fontStyle=0;aspect=fixed;pointerEvents=1;shape=mxgraph.aws4.container_registry_image;" parent="1" vertex="1">
          <mxGeometry x="-825" y="820" width="130" height="130" as="geometry" />
        </mxCell>
        <mxCell id="ew9iyMlm-J7ILumPAnAc-127" value="" style="dashed=0;outlineConnect=0;html=1;align=center;labelPosition=center;verticalLabelPosition=bottom;verticalAlign=top;shape=mxgraph.weblogos.github;fontColor=#1A1A1A;" parent="1" vertex="1">
          <mxGeometry x="-3650" y="550" width="197.5" height="197.5" as="geometry" />
        </mxCell>
        <mxCell id="ew9iyMlm-J7ILumPAnAc-129" style="edgeStyle=orthogonalEdgeStyle;rounded=0;orthogonalLoop=1;jettySize=auto;html=1;entryX=-0.001;entryY=0.419;entryDx=0;entryDy=0;entryPerimeter=0;" parent="1" source="ew9iyMlm-J7ILumPAnAc-127" target="ew9iyMlm-J7ILumPAnAc-108" edge="1">
          <mxGeometry relative="1" as="geometry" />
        </mxCell>
        <mxCell id="ew9iyMlm-J7ILumPAnAc-143" style="edgeStyle=orthogonalEdgeStyle;rounded=0;orthogonalLoop=1;jettySize=auto;html=1;exitX=0.995;exitY=0.5;exitDx=0;exitDy=0;exitPerimeter=0;strokeColor=#1A1A1A;" parent="1" source="ew9iyMlm-J7ILumPAnAc-142" target="ew9iyMlm-J7ILumPAnAc-21" edge="1">
          <mxGeometry relative="1" as="geometry" />
        </mxCell>
        <mxCell id="ew9iyMlm-J7ILumPAnAc-142" value="" style="shape=mxgraph.signs.tech.computer;html=1;pointerEvents=1;fillColor=#000099;strokeColor=none;verticalLabelPosition=bottom;verticalAlign=top;align=center;fontColor=none;noLabel=1;" parent="1" vertex="1">
          <mxGeometry x="40" y="-190" width="98" height="98" as="geometry" />
        </mxCell>
        <mxCell id="ew9iyMlm-J7ILumPAnAc-164" value="&lt;h1&gt;&lt;font style=&quot;font-size: 20px; color: light-dark(rgb(26, 26, 26), rgb(237, 237, 237));&quot;&gt;Amazon ECR&lt;/font&gt;&lt;/h1&gt;" style="text;strokeColor=none;align=center;fillColor=none;html=1;verticalAlign=middle;whiteSpace=wrap;rounded=0;fontStyle=1;fontFamily=Helvetica;" parent="1" vertex="1">
          <mxGeometry x="-835" y="490" width="150" height="30" as="geometry" />
        </mxCell>
        <mxCell id="ew9iyMlm-J7ILumPAnAc-165" value="&lt;h1&gt;&lt;font style=&quot;color: rgb(26, 26, 26);&quot;&gt;&lt;span style=&quot;font-size: 20px;&quot;&gt;Container Image&lt;/span&gt;&lt;/font&gt;&lt;/h1&gt;" style="text;strokeColor=none;align=center;fillColor=none;html=1;verticalAlign=middle;whiteSpace=wrap;rounded=0;fontStyle=1;fontFamily=Helvetica;" parent="1" vertex="1">
          <mxGeometry x="-843" y="959" width="175" height="30" as="geometry" />
        </mxCell>
        <mxCell id="ew9iyMlm-J7ILumPAnAc-166" value="&lt;font style=&quot;font-size: 13px; color: rgb(26, 26, 26);&quot;&gt;Client&lt;/font&gt;" style="text;strokeColor=none;align=center;fillColor=none;html=1;verticalAlign=middle;whiteSpace=wrap;rounded=0;fontStyle=1" parent="1" vertex="1">
          <mxGeometry x="38" y="-90" width="100" height="30" as="geometry" />
        </mxCell>
        <mxCell id="ew9iyMlm-J7ILumPAnAc-167" value="&lt;h1&gt;&lt;font style=&quot;font-size: 20px; color: light-dark(rgb(26, 26, 26), rgb(237, 237, 237)); font-weight: normal;&quot;&gt;Github Action&lt;/font&gt;&lt;/h1&gt;" style="text;strokeColor=none;align=center;fillColor=none;html=1;verticalAlign=middle;whiteSpace=wrap;rounded=0;fontStyle=0;fontFamily=Helvetica;" parent="1" vertex="1">
          <mxGeometry x="-2858" y="1060" width="150" height="30" as="geometry" />
        </mxCell>
        <mxCell id="ew9iyMlm-J7ILumPAnAc-168" value="&lt;h1&gt;&lt;font style=&quot;font-size: 20px; color: light-dark(rgb(26, 26, 26), rgb(237, 237, 237)); font-weight: normal;&quot;&gt;Github Action&lt;/font&gt;&lt;/h1&gt;" style="text;strokeColor=none;align=center;fillColor=none;html=1;verticalAlign=middle;whiteSpace=wrap;rounded=0;fontStyle=0;fontFamily=Helvetica;" parent="1" vertex="1">
          <mxGeometry x="-2480" y="1060" width="150" height="30" as="geometry" />
        </mxCell>
        <mxCell id="ew9iyMlm-J7ILumPAnAc-169" value="&lt;h1&gt;&lt;font style=&quot;font-size: 20px; color: light-dark(rgb(26, 26, 26), rgb(237, 237, 237)); font-weight: normal;&quot;&gt;Github Action&lt;/font&gt;&lt;/h1&gt;" style="text;strokeColor=none;align=center;fillColor=none;html=1;verticalAlign=middle;whiteSpace=wrap;rounded=0;fontStyle=0;fontFamily=Helvetica;" parent="1" vertex="1">
          <mxGeometry x="-2110" y="1060" width="150" height="30" as="geometry" />
        </mxCell>
        <mxCell id="ew9iyMlm-J7ILumPAnAc-170" value="&lt;h1&gt;&lt;font style=&quot;font-size: 20px; color: light-dark(rgb(26, 26, 26), rgb(237, 237, 237)); font-weight: normal;&quot;&gt;Github Action&lt;/font&gt;&lt;/h1&gt;" style="text;strokeColor=none;align=center;fillColor=none;html=1;verticalAlign=middle;whiteSpace=wrap;rounded=0;fontStyle=0;fontFamily=Helvetica;" parent="1" vertex="1">
          <mxGeometry x="-1760" y="1060" width="150" height="30" as="geometry" />
        </mxCell>
        <mxCell id="ew9iyMlm-J7ILumPAnAc-171" value="&lt;h1&gt;&lt;font style=&quot;font-size: 20px; color: light-dark(rgb(26, 26, 26), rgb(237, 237, 237)); font-weight: normal;&quot;&gt;Github Action&lt;/font&gt;&lt;/h1&gt;" style="text;strokeColor=none;align=center;fillColor=none;html=1;verticalAlign=middle;whiteSpace=wrap;rounded=0;fontStyle=0;fontFamily=Helvetica;" parent="1" vertex="1">
          <mxGeometry x="-1350" y="1060" width="150" height="30" as="geometry" />
        </mxCell>
        <mxCell id="ew9iyMlm-J7ILumPAnAc-172" value="&lt;h1&gt;&lt;font style=&quot;font-size: 20px; color: light-dark(rgb(26, 26, 26), rgb(237, 237, 237));&quot;&gt;Setup Job&lt;/font&gt;&lt;/h1&gt;" style="text;strokeColor=none;align=center;fillColor=none;html=1;verticalAlign=middle;whiteSpace=wrap;rounded=0;fontStyle=0;fontFamily=Helvetica;" parent="1" vertex="1">
          <mxGeometry x="-2858" y="1100" width="150" height="30" as="geometry" />
        </mxCell>
        <mxCell id="ew9iyMlm-J7ILumPAnAc-173" value="&lt;h1&gt;&lt;font style=&quot;font-size: 20px; color: light-dark(rgb(26, 26, 26), rgb(237, 237, 237));&quot;&gt;Checkout code&lt;/font&gt;&lt;/h1&gt;" style="text;strokeColor=none;align=center;fillColor=none;html=1;verticalAlign=middle;whiteSpace=wrap;rounded=0;fontStyle=0;fontFamily=Helvetica;" parent="1" vertex="1">
          <mxGeometry x="-2480" y="1100" width="150" height="30" as="geometry" />
        </mxCell>
        <mxCell id="ew9iyMlm-J7ILumPAnAc-174" value="&lt;h1&gt;&lt;font style=&quot;font-size: 20px; color: light-dark(rgb(26, 26, 26), rgb(237, 237, 237));&quot;&gt;Configure AWS Credentials&lt;/font&gt;&lt;/h1&gt;" style="text;strokeColor=none;align=center;fillColor=none;html=1;verticalAlign=middle;whiteSpace=wrap;rounded=0;fontStyle=0;fontFamily=Helvetica;" parent="1" vertex="1">
          <mxGeometry x="-2170" y="1100" width="290" height="30" as="geometry" />
        </mxCell>
        <mxCell id="ew9iyMlm-J7ILumPAnAc-175" value="&lt;h1&gt;&lt;font style=&quot;font-size: 20px; color: light-dark(rgb(26, 26, 26), rgb(237, 237, 237));&quot;&gt;Login to ECR&lt;/font&gt;&lt;/h1&gt;" style="text;strokeColor=none;align=center;fillColor=none;html=1;verticalAlign=middle;whiteSpace=wrap;rounded=0;fontStyle=0;fontFamily=Helvetica;" parent="1" vertex="1">
          <mxGeometry x="-1831" y="1102" width="290" height="30" as="geometry" />
        </mxCell>
        <mxCell id="ew9iyMlm-J7ILumPAnAc-178" value="&lt;h1&gt;&lt;font style=&quot;font-size: 20px; color: light-dark(rgb(26, 26, 26), rgb(237, 237, 237));&quot;&gt;Build Image&lt;/font&gt;&lt;/h1&gt;" style="text;strokeColor=none;align=center;fillColor=none;html=1;verticalAlign=middle;whiteSpace=wrap;rounded=0;fontStyle=0;fontFamily=Helvetica;" parent="1" vertex="1">
          <mxGeometry x="-1422" y="1100" width="290" height="30" as="geometry" />
        </mxCell>
        <mxCell id="ew9iyMlm-J7ILumPAnAc-179" value="&lt;h1&gt;&lt;font style=&quot;font-size: 20px;&quot;&gt;Github Workflow&lt;/font&gt;&lt;/h1&gt;" style="text;strokeColor=none;align=center;fillColor=none;html=1;verticalAlign=middle;whiteSpace=wrap;rounded=0;fontStyle=0;fontFamily=Helvetica;fontColor=#006633;" parent="1" vertex="1">
          <mxGeometry x="-2858" y="700" width="200" height="30" as="geometry" />
        </mxCell>
      </root>
    </mxGraphModel>
  </diagram>
</mxfile>
